<svg xmlns="http://www.w3.org/2000/svg" xmlns:xlink="http://www.w3.org/1999/xlink" width="500" zoomAndPan="magnify" viewBox="0 0 375 374.999991" height="500" preserveAspectRatio="xMidYMid meet" version="1.2"><defs><clipPath id="3b7e8e1249"><path d="M 31.144531 11.804688 L 331.144531 11.804688 L 331.144531 363.554688 L 31.144531 363.554688 Z M 31.144531 11.804688 "/></clipPath><clipPath id="a02c4790c2"><path d="M 57 104 L 331.144531 104 L 331.144531 358 L 57 358 Z M 57 104 "/></clipPath><clipPath id="149b74de61"><path d="M 147 106 L 331.144531 106 L 331.144531 358 L 147 358 Z M 147 106 "/></clipPath><clipPath id="69fc972609"><path d="M 181 11.804688 L 318 11.804688 L 318 119 L 181 119 Z M 181 11.804688 "/></clipPath></defs><g id="7e6878c633"><g clip-rule="nonzero" clip-path="url(#3b7e8e1249)"><path style=" stroke:none;fill-rule:nonzero;fill:none;fill-opacity:1;" d="M 31.144531 11.804688 L 331.144531 11.804688 L 331.144531 363.554688 L 31.144531 363.554688 Z M 31.144531 11.804688 "/></g><g clip-rule="nonzero" clip-path="url(#a02c4790c2)"><path style=" stroke:none;fill-rule:nonzero;fill:#e61d24;fill-opacity:1;" d="M 331.097656 231.265625 C 331.097656 279.164062 299.800781 329.066406 261.394531 351.804688 C 241.953125 363.308594 219.289062 353.273438 195.070312 353.273438 C 171.328125 353.273438 149.054688 363.554688 129.867188 352.453125 C 90.847656 329.882812 57.414062 279.632812 57.414062 231.265625 C 57.414062 186.179688 71.828125 137.367188 107.335938 115.113281 C 145.707031 91.050781 168.046875 117.144531 195.070312 117.144531 C 220.71875 117.144531 245.542969 93.183594 281.121094 116.660156 C 324.128906 145.039062 331.097656 184.792969 331.097656 231.265625 "/></g><path style=" stroke:none;fill-rule:nonzero;fill:#ee253f;fill-opacity:1;" d="M 235.835938 229.222656 C 228.183594 249.785156 216.898438 268.984375 202.65625 285.65625 C 195.476562 294.070312 187.363281 301.980469 177.460938 306.917969 C 169.617188 310.835938 160.863281 312.753906 152.113281 313.25 C 70.878906 317.898438 31.195312 200.082031 101.109375 156.25 C 127.851562 139.484375 143.410156 157.664062 162.242188 157.664062 C 186.210938 157.664062 207.804688 139.957031 228.917969 162.296875 C 245.363281 179.699219 243.839844 207.363281 236.160156 228.328125 C 236.050781 228.625 235.941406 228.925781 235.835938 229.222656 "/><g clip-rule="nonzero" clip-path="url(#149b74de61)"><path style=" stroke:none;fill-rule:nonzero;fill:#d31a21;fill-opacity:1;" d="M 281.121094 116.660156 C 262.480469 104.367188 246.796875 105.085938 232.40625 108.5625 C 252.300781 123.195312 268.179688 142.40625 278.117188 165.585938 C 289.5625 192.265625 293.054688 221.703125 291.898438 250.546875 C 290.84375 276.753906 286.382812 295.664062 271.089844 318.046875 C 263.71875 328.839844 252.480469 337.128906 239.347656 338.945312 C 221.640625 341.402344 211.578125 335.363281 194.257812 333.703125 C 176.65625 332.019531 159.644531 347.753906 147.609375 357.503906 C 162.316406 358.378906 178.324219 353.273438 195.070312 353.273438 C 219.289062 353.273438 241.953125 363.308594 261.394531 351.804688 C 299.800781 329.066406 331.097656 279.164062 331.097656 231.265625 C 331.097656 184.792969 324.128906 145.039062 281.121094 116.660156 "/></g><path style=" stroke:none;fill-rule:nonzero;fill:#f2577d;fill-opacity:1;" d="M 69.382812 202.695312 C 69.820312 207.050781 70.863281 211.480469 73.375 215.058594 C 75.898438 218.640625 80.144531 221.234375 84.507812 220.847656 C 89.96875 220.359375 94.089844 215.484375 96.117188 210.378906 C 98.152344 205.28125 98.734375 199.695312 100.691406 194.5625 C 103.246094 187.886719 107.992188 182.3125 111.410156 176.03125 C 121.53125 157.382812 105.386719 142.613281 88.296875 154.613281 C 74.671875 164.179688 67.757812 186.980469 69.382812 202.695312 "/><g clip-rule="nonzero" clip-path="url(#69fc972609)"><path style=" stroke:none;fill-rule:nonzero;fill:#778d16;fill-opacity:1;" d="M 317.367188 14.914062 C 299.472656 15.296875 281.667969 12.125 263.765625 11.953125 C 245.863281 11.777344 226.996094 15.03125 213.191406 26.449219 C 208.660156 30.199219 204.816406 34.710938 201.394531 39.496094 C 185.300781 61.996094 178.625 91.039062 183.292969 118.320312 C 201.175781 119.355469 219.023438 114 234.761719 105.421875 C 250.496094 96.847656 264.308594 85.15625 277.335938 72.828125 C 293.667969 57.355469 317.367188 14.914062 317.367188 14.914062 "/></g><path style=" stroke:none;fill-rule:nonzero;fill:#8aa41a;fill-opacity:1;" d="M 203.117188 110.496094 C 204.03125 110.179688 204.949219 109.847656 205.847656 109.507812 C 211.949219 107.222656 218.125 104.90625 223.503906 101.226562 C 228.878906 97.546875 233.480469 92.308594 235.070312 85.984375 C 235.265625 85.203125 235.53125 84.273438 236.289062 84.003906 C 236.824219 83.820312 237.402344 84.035156 237.9375 84.214844 C 243.769531 86.226562 250.8125 83.933594 254.347656 78.875 C 257.425781 74.472656 258.316406 68.105469 263.09375 65.671875 C 265.183594 64.609375 267.621094 64.5625 269.898438 64.03125 C 277.613281 62.230469 283.089844 54.707031 284.28125 46.859375 C 284.75 43.734375 284.695312 40.417969 286.21875 37.652344 C 288.011719 34.390625 291.589844 32.628906 294.617188 30.460938 C 297.640625 28.285156 300.476562 24.808594 299.574219 21.191406 C 283.738281 20.929688 269.683594 32.515625 253.851562 33.003906 C 249.035156 33.15625 244.238281 32.257812 239.417969 32.207031 C 230.519531 32.117188 219.960938 36.625 214.652344 43.882812 C 209.769531 50.566406 206.9375 59.828125 198.753906 63.355469 C 194.585938 65.15625 190.308594 65.199219 187.128906 68.894531 C 186.953125 69.113281 186.789062 69.34375 186.613281 69.566406 C 184.050781 77.890625 182.027344 87 181.980469 95.753906 C 181.953125 99.425781 181.761719 105.375 183.164062 108.722656 C 184.878906 112.800781 183.089844 110.765625 187.203125 111.378906 C 190 111.800781 193.5625 111.886719 196.429688 111.847656 C 198.71875 111.816406 200.941406 111.230469 203.117188 110.496094 "/><path style=" stroke:none;fill-rule:nonzero;fill:#505f0d;fill-opacity:1;" d="M 183.996094 118.449219 C 183.996094 118.449219 184.078125 117.882812 184.34375 116.832031 C 184.460938 116.300781 184.644531 115.65625 184.871094 114.90625 C 185.101562 114.15625 185.332031 113.273438 185.710938 112.335938 C 186.066406 111.386719 186.460938 110.332031 186.890625 109.1875 C 187.371094 108.066406 187.933594 106.871094 188.515625 105.578125 C 189.070312 104.265625 189.835938 102.980469 190.558594 101.5625 C 191.296875 100.152344 192.097656 98.679688 193.046875 97.222656 C 193.976562 95.746094 194.945312 94.207031 195.941406 92.609375 C 197.027344 91.082031 198.195312 89.527344 199.378906 87.910156 C 199.980469 87.113281 200.550781 86.269531 201.199219 85.480469 C 201.859375 84.695312 202.523438 83.894531 203.195312 83.089844 C 204.535156 81.476562 205.925781 79.839844 207.382812 78.214844 C 208.902344 76.65625 210.449219 75.066406 212.011719 73.457031 C 212.796875 72.652344 213.582031 71.847656 214.378906 71.035156 C 215.191406 70.25 216.066406 69.515625 216.910156 68.746094 C 218.625 67.230469 220.351562 65.703125 222.082031 64.167969 L 223.386719 63.023438 L 224.757812 61.957031 L 227.507812 59.824219 C 229.351562 58.417969 231.199219 57.011719 233.035156 55.613281 C 233.9375 54.886719 234.921875 54.289062 235.871094 53.644531 C 236.828125 53.011719 237.78125 52.382812 238.734375 51.753906 C 242.527344 49.21875 246.28125 46.765625 250.09375 44.707031 C 251.988281 43.648438 253.828125 42.570312 255.660156 41.585938 C 256.570312 41.085938 257.476562 40.589844 258.371094 40.101562 C 258.820312 39.863281 259.257812 39.609375 259.703125 39.382812 C 260.160156 39.167969 260.609375 38.949219 261.054688 38.738281 C 264.625 37.015625 268.035156 35.449219 271.175781 34.019531 C 272.753906 33.316406 274.230469 32.570312 275.691406 31.996094 C 277.171875 31.4375 278.566406 30.910156 279.875 30.414062 C 282.496094 29.40625 284.800781 28.585938 286.691406 27.898438 C 288.574219 27.203125 290.078125 26.707031 291.089844 26.351562 C 292.109375 26.007812 292.648438 25.824219 292.648438 25.824219 C 292.648438 25.824219 292.15625 26.113281 291.222656 26.660156 C 290.285156 27.191406 288.921875 28 287.164062 28.96875 C 285.410156 29.941406 283.292969 31.136719 280.832031 32.445312 C 279.609375 33.105469 278.304688 33.804688 276.933594 34.546875 C 275.570312 35.304688 274.171875 36.167969 272.695312 37.027344 C 269.753906 38.773438 266.570312 40.65625 263.171875 42.578125 C 262.746094 42.820312 262.320312 43.0625 261.890625 43.308594 C 261.46875 43.5625 261.054688 43.84375 260.632812 44.113281 C 259.792969 44.660156 258.945312 45.210938 258.085938 45.769531 C 256.371094 46.898438 254.585938 47.980469 252.792969 49.117188 C 251.890625 49.683594 250.984375 50.253906 250.070312 50.828125 C 249.613281 51.117188 249.15625 51.402344 248.699219 51.691406 L 247.363281 52.640625 C 245.59375 53.914062 243.785156 55.183594 241.953125 56.449219 C 240.136719 57.734375 238.25 58.957031 236.460938 60.316406 C 234.679688 61.691406 232.898438 63.074219 231.109375 64.457031 L 228.417969 66.507812 L 227.074219 67.535156 L 225.800781 68.636719 C 224.089844 70.09375 222.386719 71.542969 220.699219 72.984375 C 219.859375 73.707031 219.003906 74.40625 218.179688 75.136719 C 217.378906 75.890625 216.582031 76.640625 215.792969 77.382812 C 214.203125 78.871094 212.636719 80.34375 211.097656 81.789062 C 209.609375 83.289062 208.234375 84.84375 206.800781 86.28125 C 206.09375 87.011719 205.386719 87.734375 204.695312 88.449219 C 204.007812 89.171875 203.402344 89.941406 202.765625 90.667969 C 201.5 92.132812 200.285156 93.578125 199.074219 94.949219 C 197.949219 96.386719 196.867188 97.777344 195.824219 99.105469 C 195.308594 99.785156 194.761719 100.417969 194.316406 101.089844 C 193.851562 101.753906 193.402344 102.40625 192.960938 103.039062 C 192.082031 104.3125 191.164062 105.480469 190.46875 106.667969 C 189.734375 107.835938 189.058594 108.941406 188.402344 109.949219 C 187.808594 110.988281 187.261719 111.945312 186.769531 112.808594 C 186.257812 113.667969 185.898438 114.476562 185.527344 115.164062 C 185.167969 115.855469 184.867188 116.445312 184.664062 116.9375 C 184.207031 117.910156 183.996094 118.449219 183.996094 118.449219 "/><path style=" stroke:none;fill-rule:nonzero;fill:#cc1920;fill-opacity:1;" d="M 140.175781 118.449219 C 140.175781 118.449219 141.632812 140.257812 171.449219 141.933594 C 204.683594 143.796875 227.816406 123.992188 227.816406 123.992188 C 227.816406 123.992188 210.386719 131.203125 190.34375 134.101562 C 178.042969 135.882812 166.882812 138.667969 140.175781 118.449219 "/><path style=" stroke:none;fill-rule:nonzero;fill:#582513;fill-opacity:1;" d="M 179.382812 135.058594 C 179.382812 135.058594 175.464844 84.15625 152.023438 56.449219 L 169.976562 47.1875 C 169.976562 47.1875 189.582031 87.757812 185.316406 135.058594 L 179.382812 135.058594 "/><path style=" stroke:none;fill-rule:nonzero;fill:#4a1e0f;fill-opacity:1;" d="M 169.976562 47.195312 C 170.378906 47.972656 166.683594 50.679688 161.734375 53.234375 C 156.773438 55.792969 152.429688 57.230469 152.023438 56.449219 C 151.625 55.671875 155.3125 52.964844 160.273438 50.410156 C 165.234375 47.851562 169.574219 46.410156 169.976562 47.195312 "/><path style=" stroke:none;fill-rule:nonzero;fill:#505f0d;fill-opacity:1;" d="M 202.039062 91.441406 C 202.039062 91.441406 203.492188 90.910156 205.75 90.449219 C 206.871094 90.207031 208.207031 90 209.644531 89.855469 C 210.367188 89.8125 211.109375 89.71875 211.875 89.730469 C 212.636719 89.714844 213.417969 89.734375 214.195312 89.765625 C 214.96875 89.835938 215.75 89.894531 216.511719 90.027344 C 217.277344 90.121094 218.019531 90.328125 218.734375 90.503906 C 219.445312 90.699219 220.121094 90.9375 220.746094 91.195312 C 221.371094 91.457031 221.953125 91.722656 222.457031 92.035156 C 222.710938 92.179688 222.957031 92.320312 223.1875 92.453125 C 223.402344 92.613281 223.609375 92.765625 223.804688 92.90625 C 224.191406 93.175781 224.511719 93.4375 224.761719 93.679688 C 225.257812 94.144531 225.519531 94.421875 225.519531 94.421875 C 225.519531 94.421875 225.15625 94.277344 224.546875 94.003906 C 224.253906 93.859375 223.867188 93.726562 223.445312 93.558594 C 223.019531 93.390625 222.539062 93.222656 222.007812 93.0625 C 221.484375 92.878906 220.898438 92.753906 220.289062 92.585938 C 219.683594 92.433594 219.023438 92.320312 218.351562 92.183594 C 217.679688 92.066406 216.976562 91.988281 216.261719 91.902344 C 215.546875 91.792969 214.808594 91.769531 214.074219 91.71875 C 212.605469 91.601562 211.121094 91.609375 209.71875 91.574219 C 209.019531 91.59375 208.335938 91.558594 207.6875 91.570312 C 207.042969 91.566406 206.425781 91.566406 205.863281 91.5625 C 204.722656 91.558594 203.769531 91.53125 203.097656 91.503906 C 202.425781 91.476562 202.039062 91.441406 202.039062 91.441406 "/><path style=" stroke:none;fill-rule:nonzero;fill:#505f0d;fill-opacity:1;" d="M 210.828125 77.960938 C 210.828125 77.960938 210.6875 77.648438 210.472656 77.09375 C 210.242188 76.550781 210.011719 75.726562 209.640625 74.804688 C 209.460938 74.339844 209.269531 73.84375 209.09375 73.3125 C 208.925781 72.78125 208.660156 72.234375 208.453125 71.660156 C 208.230469 71.085938 208.035156 70.488281 207.769531 69.898438 C 207.523438 69.304688 207.285156 68.699219 207.046875 68.089844 C 206.78125 67.496094 206.515625 66.902344 206.269531 66.308594 C 206.03125 65.707031 205.746094 65.148438 205.496094 64.585938 C 205.226562 64.035156 205.027344 63.46875 204.765625 62.96875 C 204.507812 62.464844 204.289062 61.976562 204.078125 61.523438 C 203.683594 60.605469 203.273438 59.882812 203.046875 59.332031 C 202.804688 58.792969 202.679688 58.46875 202.679688 58.46875 C 202.679688 58.46875 202.941406 58.6875 203.363281 59.105469 C 203.578125 59.316406 203.839844 59.566406 204.121094 59.871094 C 204.410156 60.167969 204.730469 60.511719 205.03125 60.921875 C 205.34375 61.324219 205.6875 61.757812 206.027344 62.234375 C 206.382812 62.699219 206.691406 63.234375 207.027344 63.777344 C 207.355469 64.324219 207.710938 64.882812 207.984375 65.5 C 208.28125 66.097656 208.566406 66.71875 208.851562 67.339844 C 209.089844 67.976562 209.332031 68.617188 209.550781 69.25 C 209.789062 69.875 209.941406 70.519531 210.101562 71.136719 C 210.253906 71.761719 210.414062 72.347656 210.5 72.9375 C 210.597656 73.519531 210.667969 74.070312 210.734375 74.578125 C 210.816406 75.085938 210.832031 75.546875 210.839844 75.957031 C 210.859375 76.367188 210.855469 76.730469 210.855469 77.023438 C 210.855469 77.617188 210.828125 77.960938 210.828125 77.960938 "/><path style=" stroke:none;fill-rule:nonzero;fill:#505f0d;fill-opacity:1;" d="M 224.9375 67.84375 C 224.9375 67.84375 225.300781 67.703125 225.9375 67.488281 C 226.257812 67.386719 226.648438 67.257812 227.09375 67.128906 C 227.316406 67.066406 227.554688 66.996094 227.804688 66.925781 C 228.058594 66.859375 228.335938 66.824219 228.621094 66.773438 C 229.191406 66.671875 229.820312 66.566406 230.488281 66.476562 C 231.15625 66.367188 231.851562 66.371094 232.582031 66.339844 C 233.308594 66.335938 234.066406 66.261719 234.824219 66.359375 C 235.585938 66.429688 236.363281 66.492188 237.136719 66.558594 C 237.902344 66.707031 238.664062 66.863281 239.414062 67.011719 C 240.171875 67.125 240.875 67.410156 241.574219 67.617188 C 242.265625 67.84375 242.941406 68.039062 243.542969 68.332031 C 244.15625 68.597656 244.722656 68.871094 245.242188 69.125 C 245.503906 69.257812 245.753906 69.367188 245.984375 69.496094 C 246.207031 69.640625 246.417969 69.773438 246.621094 69.902344 C 247.019531 70.152344 247.355469 70.386719 247.636719 70.574219 C 248.195312 70.953125 248.5 71.1875 248.5 71.1875 C 248.5 71.1875 248.113281 71.101562 247.46875 70.925781 C 247.148438 70.835938 246.753906 70.726562 246.316406 70.585938 C 245.882812 70.441406 245.386719 70.304688 244.832031 70.175781 C 244.289062 70.039062 243.699219 69.894531 243.085938 69.714844 C 242.476562 69.527344 241.796875 69.457031 241.125 69.28125 C 240.449219 69.128906 239.753906 68.96875 239.03125 68.863281 C 238.316406 68.742188 237.589844 68.617188 236.863281 68.496094 C 236.128906 68.410156 235.394531 68.324219 234.675781 68.242188 C 233.953125 68.140625 233.242188 68.105469 232.550781 68.0625 C 231.859375 68.039062 231.179688 67.917969 230.550781 67.933594 C 229.917969 67.933594 229.316406 67.90625 228.757812 67.882812 C 228.195312 67.847656 227.671875 67.847656 227.203125 67.867188 C 226.742188 67.882812 226.335938 67.875 225.996094 67.875 C 225.324219 67.863281 224.9375 67.84375 224.9375 67.84375 "/><path style=" stroke:none;fill-rule:nonzero;fill:#505f0d;fill-opacity:1;" d="M 232.507812 55.800781 C 232.507812 55.800781 232.460938 55.410156 232.410156 54.734375 C 232.390625 54.394531 232.359375 53.984375 232.34375 53.515625 C 232.339844 53.039062 232.308594 52.511719 232.230469 51.953125 C 232.167969 51.390625 232.097656 50.789062 232.054688 50.15625 C 232.023438 49.523438 231.832031 48.851562 231.757812 48.160156 C 231.652344 47.472656 231.5625 46.753906 231.382812 46.046875 C 231.230469 45.332031 231.070312 44.601562 230.914062 43.878906 C 230.710938 43.167969 230.507812 42.453125 230.304688 41.75 C 230.125 41.039062 229.875 40.363281 229.636719 39.707031 C 229.378906 39.0625 229.230469 38.386719 228.953125 37.804688 C 228.691406 37.21875 228.464844 36.652344 228.257812 36.125 C 228.058594 35.585938 227.84375 35.113281 227.632812 34.703125 C 227.421875 34.289062 227.261719 33.914062 227.117188 33.609375 C 226.84375 32.988281 226.699219 32.617188 226.699219 32.617188 C 226.699219 32.617188 226.972656 32.890625 227.441406 33.386719 C 227.671875 33.636719 227.957031 33.9375 228.265625 34.300781 C 228.417969 34.484375 228.589844 34.675781 228.765625 34.882812 C 228.925781 35.089844 229.070312 35.332031 229.234375 35.574219 C 229.566406 36.058594 229.917969 36.589844 230.269531 37.167969 C 230.648438 37.730469 230.914062 38.394531 231.234375 39.058594 C 231.527344 39.730469 231.90625 40.410156 232.101562 41.160156 C 232.332031 41.902344 232.570312 42.652344 232.8125 43.40625 C 232.957031 44.179688 233.097656 44.957031 233.242188 45.71875 C 233.417969 46.472656 233.40625 47.246094 233.464844 47.980469 C 233.496094 48.722656 233.570312 49.421875 233.503906 50.109375 C 233.46875 50.792969 233.40625 51.433594 233.347656 52.019531 C 233.316406 52.308594 233.300781 52.59375 233.253906 52.851562 C 233.195312 53.113281 233.136719 53.351562 233.089844 53.582031 C 232.988281 54.042969 232.878906 54.445312 232.792969 54.769531 C 232.621094 55.425781 232.507812 55.800781 232.507812 55.800781 "/><path style=" stroke:none;fill-rule:nonzero;fill:#505f0d;fill-opacity:1;" d="M 256.039062 48.140625 C 256.039062 48.140625 256.371094 47.984375 256.957031 47.753906 C 257.246094 47.644531 257.605469 47.5 258.011719 47.355469 C 258.421875 47.199219 258.890625 47.042969 259.421875 46.929688 C 259.945312 46.796875 260.523438 46.652344 261.136719 46.53125 C 261.753906 46.386719 262.398438 46.328125 263.074219 46.242188 C 263.75 46.164062 264.445312 46.066406 265.160156 46.074219 C 265.875 46.0625 266.601562 46.058594 267.324219 46.050781 C 268.042969 46.109375 268.765625 46.171875 269.480469 46.234375 C 270.191406 46.277344 270.878906 46.425781 271.550781 46.550781 C 272.210938 46.691406 272.855469 46.792969 273.453125 46.984375 C 274.050781 47.152344 274.609375 47.335938 275.125 47.507812 C 275.644531 47.65625 276.101562 47.851562 276.5 48.039062 C 276.90625 48.210938 277.253906 48.382812 277.535156 48.519531 C 278.105469 48.792969 278.421875 48.972656 278.421875 48.972656 C 278.421875 48.972656 278.054688 48.957031 277.429688 48.890625 C 276.800781 48.851562 275.933594 48.683594 274.878906 48.605469 C 274.347656 48.558594 273.78125 48.503906 273.1875 48.425781 C 272.59375 48.335938 271.957031 48.339844 271.3125 48.273438 C 270.660156 48.21875 269.996094 48.136719 269.3125 48.121094 C 268.628906 48.097656 267.941406 48.050781 267.25 48.007812 C 266.558594 47.992188 265.867188 47.976562 265.183594 47.96875 C 264.5 47.929688 263.835938 47.96875 263.183594 47.96875 C 262.535156 47.988281 261.890625 47.929688 261.300781 47.972656 C 260.710938 48.015625 260.144531 48.019531 259.617188 48.03125 C 259.089844 48.035156 258.597656 48.054688 258.164062 48.085938 C 257.730469 48.117188 257.347656 48.125 257.03125 48.132812 C 256.402344 48.15625 256.039062 48.140625 256.039062 48.140625 "/><path style=" stroke:none;fill-rule:nonzero;fill:#505f0d;fill-opacity:1;" d="M 251.890625 43.785156 C 251.890625 43.785156 251.988281 43.503906 252.195312 43.027344 C 252.300781 42.789062 252.425781 42.503906 252.582031 42.183594 C 252.75 41.867188 252.917969 41.496094 253.046875 41.09375 C 253.191406 40.699219 253.34375 40.273438 253.527344 39.84375 C 253.726562 39.425781 253.808594 38.902344 253.984375 38.417969 C 254.132812 37.921875 254.328125 37.425781 254.417969 36.890625 C 254.535156 36.359375 254.671875 35.828125 254.804688 35.296875 C 254.878906 34.753906 254.953125 34.210938 255.050781 33.671875 C 255.171875 33.140625 255.175781 32.609375 255.222656 32.089844 C 255.246094 31.578125 255.367188 31.070312 255.34375 30.59375 C 255.332031 30.117188 255.347656 29.660156 255.363281 29.234375 C 255.394531 28.804688 255.378906 28.417969 255.351562 28.066406 C 255.324219 27.722656 255.324219 27.410156 255.316406 27.152344 C 255.304688 26.640625 255.316406 26.328125 255.316406 26.328125 C 255.316406 26.328125 255.46875 26.585938 255.691406 27.054688 C 255.804688 27.289062 255.941406 27.578125 256.082031 27.917969 C 256.15625 28.085938 256.234375 28.265625 256.3125 28.457031 C 256.378906 28.652344 256.417969 28.859375 256.480469 29.078125 C 256.585938 29.511719 256.707031 29.988281 256.796875 30.5 C 256.925781 31.011719 256.914062 31.558594 256.957031 32.121094 C 256.976562 32.691406 257.03125 33.28125 256.9375 33.875 C 256.878906 34.46875 256.796875 35.074219 256.71875 35.671875 C 256.566406 36.261719 256.410156 36.847656 256.242188 37.417969 C 256.101562 38 255.828125 38.53125 255.59375 39.042969 C 255.339844 39.554688 255.144531 40.058594 254.832031 40.496094 C 254.546875 40.941406 254.25 41.339844 253.984375 41.707031 C 253.84375 41.886719 253.730469 42.066406 253.597656 42.21875 C 253.453125 42.363281 253.316406 42.492188 253.1875 42.617188 C 252.9375 42.871094 252.703125 43.082031 252.511719 43.253906 C 252.125 43.597656 251.890625 43.785156 251.890625 43.785156 "/></g></svg>