<svg xmlns="http://www.w3.org/2000/svg" xmlns:xlink="http://www.w3.org/1999/xlink" width="500" zoomAndPan="magnify" viewBox="0 0 375 374.999991" height="500" preserveAspectRatio="xMidYMid meet" version="1.2"><defs><clipPath id="d2f3cf8ccb"><path d="M 31.144531 11.804688 L 331.144531 11.804688 L 331.144531 363.554688 L 31.144531 363.554688 Z M 31.144531 11.804688 "/></clipPath><clipPath id="abb6ce492c"><path d="M 27.472656 169.089844 L 253.917969 169.089844 L 253.917969 321.839844 L 27.472656 321.839844 Z M 27.472656 169.089844 "/></clipPath><clipPath id="cde8ccc8d2"><path d="M 292 109.738281 L 343.722656 109.738281 L 343.722656 143 L 292 143 Z M 292 109.738281 "/></clipPath></defs><g id="a717cfd9a6"><g clip-rule="nonzero" clip-path="url(#d2f3cf8ccb)"><path style=" stroke:none;fill-rule:nonzero;fill:none;fill-opacity:1;" d="M 31.144531 11.804688 L 331.144531 11.804688 L 331.144531 363.554688 L 31.144531 363.554688 Z M 31.144531 11.804688 "/></g><path style=" stroke:none;fill-rule:nonzero;fill:#050606;fill-opacity:1;" d="M 259.457031 165.15625 C 259.464844 165.148438 259.476562 165.140625 259.484375 165.132812 C 260.902344 163.675781 262.304688 162.230469 263.683594 160.792969 C 264.109375 160.355469 264.097656 159.648438 263.652344 159.222656 C 263.210938 158.796875 262.503906 158.8125 262.082031 159.253906 C 260.703125 160.679688 259.304688 162.128906 257.890625 163.582031 C 257.460938 164.019531 257.472656 164.722656 257.914062 165.152344 C 258.34375 165.574219 259.027344 165.574219 259.457031 165.15625 "/><g clip-rule="nonzero" clip-path="url(#abb6ce492c)"><path style=" stroke:none;fill-rule:nonzero;fill:#050606;fill-opacity:1;" d="M 153.878906 179.117188 C 150.019531 180.183594 146.410156 181.945312 143.433594 184.203125 C 142.945312 184.578125 142.246094 184.480469 141.875 183.992188 C 141.503906 183.503906 141.601562 182.808594 142.085938 182.433594 C 145.285156 180.003906 149.15625 178.117188 153.289062 176.976562 C 153.882812 176.8125 154.492188 177.160156 154.65625 177.753906 C 154.769531 178.160156 154.640625 178.578125 154.355469 178.851562 C 154.226562 178.976562 154.066406 179.070312 153.878906 179.117188 Z M 132.429688 201.863281 C 131.820312 201.769531 131.40625 201.203125 131.5 200.59375 C 132.007812 197.292969 133.015625 194.175781 134.496094 191.332031 C 134.925781 190.503906 135.410156 189.6875 135.933594 188.910156 C 136.273438 188.398438 136.964844 188.261719 137.476562 188.605469 C 137.988281 188.949219 138.121094 189.636719 137.78125 190.148438 C 137.300781 190.859375 136.859375 191.605469 136.46875 192.355469 C 135.101562 194.984375 134.171875 197.871094 133.695312 200.933594 C 133.660156 201.183594 133.539062 201.402344 133.371094 201.566406 C 133.128906 201.796875 132.785156 201.917969 132.429688 201.863281 Z M 173.558594 179.730469 C 170.222656 178.4375 166.371094 177.824219 162.121094 177.914062 C 161.515625 177.9375 161.003906 177.46875 160.96875 176.867188 C 160.933594 176.253906 161.402344 175.726562 162.019531 175.691406 L 162.09375 175.6875 C 166.628906 175.597656 170.753906 176.257812 174.363281 177.65625 C 174.9375 177.878906 175.222656 178.523438 175 179.097656 C 174.9375 179.25 174.847656 179.386719 174.734375 179.496094 C 174.433594 179.785156 173.976562 179.890625 173.558594 179.730469 Z M 38.929688 314.59375 C 38.808594 314.664062 38.6875 314.734375 38.570312 314.804688 C 35.109375 316.847656 32.003906 319.117188 29.335938 321.550781 C 28.878906 321.964844 28.179688 321.929688 27.761719 321.476562 C 27.347656 321.023438 27.378906 320.3125 27.835938 319.90625 C 30.617188 317.371094 33.847656 315.011719 37.4375 312.890625 C 37.5625 312.816406 37.691406 312.742188 37.816406 312.667969 C 38.347656 312.363281 39.03125 312.542969 39.335938 313.074219 C 39.597656 313.527344 39.507812 314.085938 39.144531 314.429688 C 39.082031 314.492188 39.007812 314.546875 38.929688 314.59375 Z M 136.511719 221.839844 C 135.96875 222.125 135.296875 221.917969 135.011719 221.375 C 133.089844 217.757812 131.820312 213.640625 131.34375 209.472656 C 131.273438 208.863281 131.707031 208.308594 132.320312 208.242188 C 132.929688 208.171875 133.480469 208.609375 133.550781 209.21875 C 134 213.113281 135.183594 216.957031 136.972656 220.335938 C 137.210938 220.785156 137.113281 221.320312 136.761719 221.65625 C 136.6875 221.726562 136.605469 221.789062 136.511719 221.839844 Z M 58.007812 307.574219 C 53.800781 308.554688 49.949219 309.714844 46.554688 311.011719 C 45.984375 311.234375 45.339844 310.949219 45.117188 310.375 C 44.898438 309.800781 45.1875 309.160156 45.757812 308.9375 C 49.246094 307.601562 53.199219 306.414062 57.5 305.410156 C 58.097656 305.269531 58.695312 305.644531 58.835938 306.242188 C 58.929688 306.636719 58.792969 307.035156 58.523438 307.296875 C 58.382812 307.429688 58.207031 307.527344 58.007812 307.574219 Z M 188.800781 193.894531 C 188.246094 194.15625 187.582031 193.917969 187.316406 193.367188 C 185.8125 190.1875 183.984375 187.46875 181.890625 185.289062 C 181.449219 184.835938 180.996094 184.394531 180.53125 183.980469 C 180.070312 183.570312 180.027344 182.871094 180.4375 182.414062 C 180.84375 181.953125 181.546875 181.910156 182.007812 182.320312 C 182.515625 182.769531 183.011719 183.25 183.492188 183.75 C 185.753906 186.101562 187.71875 189.019531 189.328125 192.414062 C 189.539062 192.855469 189.429688 193.367188 189.09375 193.691406 C 189.007812 193.773438 188.910156 193.839844 188.800781 193.894531 Z M 78.320312 304.367188 C 74.089844 304.785156 70.074219 305.308594 66.378906 305.921875 C 65.773438 306.019531 65.199219 305.613281 65.101562 305.003906 C 65 304.402344 65.410156 303.828125 66.015625 303.726562 C 69.757812 303.109375 73.824219 302.578125 78.101562 302.15625 C 78.714844 302.09375 79.257812 302.539062 79.320312 303.152344 C 79.351562 303.507812 79.21875 303.835938 78.980469 304.0625 C 78.808594 304.230469 78.578125 304.34375 78.320312 304.367188 Z M 150.972656 235.148438 C 146.949219 233.847656 143.394531 231.671875 140.34375 228.621094 C 139.910156 228.1875 139.96875 227.542969 140.410156 227.117188 C 140.414062 227.113281 140.421875 227.109375 140.425781 227.101562 C 140.863281 226.683594 141.488281 226.621094 141.914062 227.050781 C 144.714844 229.847656 147.9375 231.804688 151.625 233 C 152.210938 233.1875 152.53125 233.816406 152.339844 234.402344 C 152.28125 234.578125 152.183594 234.734375 152.054688 234.859375 C 151.769531 235.132812 151.375 235.28125 150.972656 235.148438 Z M 98.949219 302.796875 L 96.117188 302.988281 C 93.085938 303.195312 89.949219 303.40625 86.871094 303.636719 C 86.257812 303.683594 85.722656 303.222656 85.679688 302.609375 C 85.632812 302 86.089844 301.46875 86.703125 301.417969 C 89.792969 301.183594 92.933594 300.972656 95.964844 300.769531 L 98.796875 300.578125 C 99.410156 300.535156 99.9375 301 99.980469 301.609375 C 100.003906 301.949219 99.871094 302.269531 99.640625 302.488281 C 99.460938 302.660156 99.21875 302.777344 98.949219 302.796875 Z M 171.984375 234.777344 C 167.6875 236.015625 163.558594 236.609375 159.71875 236.539062 C 159.101562 236.53125 158.617188 236.023438 158.625 235.410156 C 158.636719 234.792969 159.144531 234.308594 159.757812 234.316406 C 163.375 234.382812 167.28125 233.820312 171.371094 232.640625 C 171.960938 232.46875 172.574219 232.8125 172.746094 233.398438 C 172.863281 233.8125 172.734375 234.234375 172.445312 234.507812 C 172.320312 234.632812 172.164062 234.722656 171.984375 234.777344 Z M 193.644531 213.96875 C 193.03125 214.039062 192.476562 213.605469 192.40625 212.996094 C 191.886719 208.671875 191.144531 204.722656 190.191406 201.261719 C 190.027344 200.667969 190.375 200.054688 190.96875 199.894531 C 191.5625 199.730469 192.171875 200.078125 192.335938 200.671875 C 193.316406 204.238281 194.082031 208.296875 194.613281 212.730469 C 194.660156 213.089844 194.523438 213.429688 194.28125 213.664062 C 194.113281 213.828125 193.890625 213.9375 193.644531 213.96875 Z M 191.015625 225.972656 C 187.285156 228.261719 183.644531 230.203125 180.199219 231.738281 C 179.636719 231.988281 178.980469 231.738281 178.730469 231.175781 C 178.480469 230.617188 178.734375 229.957031 179.292969 229.707031 C 182.648438 228.210938 186.203125 226.316406 189.851562 224.074219 C 190.375 223.753906 191.0625 223.917969 191.382812 224.445312 C 191.660156 224.898438 191.574219 225.472656 191.207031 225.824219 C 191.148438 225.878906 191.085938 225.929688 191.015625 225.972656 Z M 208 213.851562 C 204.476562 216.65625 201.292969 219.054688 198.265625 221.1875 C 197.761719 221.542969 197.066406 221.421875 196.714844 220.921875 C 196.363281 220.417969 196.484375 219.722656 196.984375 219.371094 C 199.976562 217.265625 203.125 214.890625 206.617188 212.113281 C 207.09375 211.730469 207.796875 211.808594 208.179688 212.289062 C 208.539062 212.742188 208.488281 213.390625 208.078125 213.785156 C 208.050781 213.804688 208.027344 213.828125 208 213.851562 Z M 243.359375 179.910156 C 242.925781 179.476562 242.902344 178.742188 243.332031 178.308594 C 246.195312 175.460938 249.070312 172.578125 251.878906 169.730469 C 252.316406 169.296875 253.019531 169.296875 253.457031 169.730469 C 253.894531 170.160156 253.914062 170.878906 253.480469 171.316406 C 250.671875 174.167969 247.871094 177.144531 244.960938 179.941406 C 244.953125 179.949219 244.949219 179.953125 244.945312 179.957031 C 244.507812 180.375 243.789062 180.339844 243.359375 179.910156 Z M 223.789062 200.289062 C 220.273438 203.671875 217.597656 206.015625 215.941406 207.359375 C 215.539062 207.6875 215.140625 208.050781 214.699219 208.410156 C 214.222656 208.796875 213.523438 208.726562 213.136719 208.25 C 212.746094 207.777344 212.820312 207.070312 213.292969 206.683594 C 213.730469 206.328125 214.152344 205.980469 214.558594 205.648438 C 216.152344 204.359375 218.828125 201.953125 222.304688 198.699219 C 222.753906 198.28125 223.445312 198.292969 223.863281 198.742188 C 224.28125 199.1875 224.238281 199.859375 223.800781 200.28125 C 223.796875 200.28125 223.792969 200.289062 223.789062 200.289062 Z M 228.503906 194.359375 C 228.082031 193.917969 228.085938 193.207031 228.53125 192.78125 C 231.238281 190.175781 234.109375 187.285156 237.191406 184.324219 C 237.191406 184.324219 237.199219 184.320312 237.199219 184.316406 C 237.636719 183.898438 238.347656 183.917969 238.777344 184.351562 C 239.207031 184.792969 239.214844 185.511719 238.777344 185.941406 C 235.726562 188.945312 232.800781 191.789062 230.085938 194.398438 C 229.640625 194.824219 228.929688 194.804688 228.503906 194.359375 Z M 119.640625 300.988281 C 116.003906 301.425781 112.15625 301.800781 107.542969 302.167969 C 106.929688 302.21875 106.394531 301.761719 106.347656 301.148438 C 106.296875 300.539062 106.753906 300 107.367188 299.953125 C 111.953125 299.585938 115.765625 299.214844 119.375 298.78125 C 119.984375 298.707031 120.539062 299.144531 120.613281 299.753906 C 120.65625 300.113281 120.523438 300.453125 120.277344 300.6875 C 120.109375 300.851562 119.890625 300.960938 119.640625 300.988281 Z M 194.554688 234.667969 C 193.941406 234.671875 193.441406 234.175781 193.4375 233.5625 C 193.421875 228.875 193.324219 225.042969 193.132812 221.503906 C 193.097656 220.886719 193.566406 220.363281 194.179688 220.332031 C 194.792969 220.296875 195.320312 220.765625 195.351562 221.378906 C 195.546875 224.960938 195.648438 228.828125 195.660156 233.554688 C 195.664062 233.867188 195.53125 234.15625 195.320312 234.359375 C 195.121094 234.550781 194.851562 234.667969 194.554688 234.667969 Z M 140.152344 297.261719 C 136.382812 298.242188 132.476562 299.0625 128.210938 299.773438 C 127.605469 299.875 127.03125 299.464844 126.929688 298.859375 C 126.828125 298.25 127.242188 297.679688 127.84375 297.578125 C 132.046875 296.878906 135.890625 296.070312 139.597656 295.109375 C 140.191406 294.953125 140.796875 295.3125 140.953125 295.90625 C 141.054688 296.3125 140.925781 296.71875 140.644531 296.988281 C 140.515625 297.117188 140.347656 297.214844 140.152344 297.261719 Z M 192.582031 255.191406 C 191.988281 255.023438 191.648438 254.410156 191.816406 253.820312 C 192.941406 249.871094 193.371094 246.710938 193.414062 242.160156 C 193.417969 241.546875 193.917969 241.050781 194.535156 241.054688 C 195.148438 241.0625 195.640625 241.566406 195.636719 242.179688 C 195.597656 246.886719 195.121094 250.320312 193.957031 254.425781 C 193.898438 254.621094 193.792969 254.792969 193.65625 254.921875 C 193.378906 255.1875 192.976562 255.304688 192.582031 255.191406 Z M 159.773438 290.027344 C 156.203125 291.808594 152.402344 293.398438 148.476562 294.757812 C 147.898438 294.957031 147.261719 294.648438 147.0625 294.070312 C 146.863281 293.488281 147.167969 292.855469 147.75 292.652344 C 151.585938 291.328125 155.300781 289.773438 158.785156 288.039062 C 159.335938 287.765625 160 287.988281 160.277344 288.539062 C 160.5 288.984375 160.390625 289.507812 160.050781 289.835938 C 159.972656 289.914062 159.878906 289.976562 159.773438 290.027344 Z M 177.476562 278.867188 C 174.519531 281.289062 171.132812 283.648438 167.40625 285.871094 C 166.878906 286.1875 166.195312 286.015625 165.882812 285.488281 C 165.566406 284.960938 165.738281 284.277344 166.265625 283.964844 C 169.898438 281.792969 173.195312 279.5 176.066406 277.148438 C 176.542969 276.761719 177.242188 276.832031 177.632812 277.304688 C 178 277.757812 177.957031 278.414062 177.542969 278.8125 C 177.523438 278.832031 177.5 278.851562 177.476562 278.867188 Z M 182.277344 272.929688 C 181.824219 272.519531 181.789062 271.816406 182.203125 271.363281 C 185.011719 268.269531 187.195312 265.101562 188.878906 261.679688 C 189.152344 261.128906 189.816406 260.902344 190.367188 261.175781 C 190.917969 261.445312 191.144531 262.113281 190.875 262.660156 C 189.097656 266.273438 186.796875 269.605469 183.847656 272.859375 C 183.828125 272.875 183.8125 272.894531 183.792969 272.910156 C 183.375 273.316406 182.714844 273.328125 182.277344 272.929688 "/></g><path style=" stroke:none;fill-rule:nonzero;fill:#050606;fill-opacity:1;" d="M 309.890625 112.699219 C 313.859375 106.207031 312.484375 95.222656 305.21875 90.78125 C 297.953125 86.34375 287.550781 90.125 283.582031 96.617188 C 279.613281 103.109375 288.765625 101.375 296.027344 105.816406 C 303.292969 110.257812 305.921875 119.195312 309.890625 112.699219 "/><path style=" stroke:none;fill-rule:nonzero;fill:#050606;fill-opacity:1;" d="M 303.109375 110.753906 C 304.285156 112.027344 305.296875 113.125 306.171875 113.65625 C 306.796875 114.039062 307.578125 114.515625 309.011719 112.164062 C 312.617188 106.269531 311.488281 95.808594 304.6875 91.648438 C 297.886719 87.492188 288.0625 91.261719 284.460938 97.152344 C 283.019531 99.507812 283.800781 99.984375 284.425781 100.367188 C 285.296875 100.898438 286.738281 101.300781 288.402344 101.761719 C 290.816406 102.4375 293.816406 103.273438 296.558594 104.949219 C 299.304688 106.625 301.414062 108.914062 303.109375 110.753906 Z M 282.707031 96.082031 C 286.875 89.261719 297.847656 85.085938 305.75 89.914062 C 313.652344 94.746094 314.933594 106.417969 310.765625 113.238281 C 309.109375 115.949219 307.207031 116.675781 305.109375 115.390625 C 303.988281 114.707031 302.886719 113.511719 301.609375 112.125 C 299.914062 110.289062 297.996094 108.210938 295.5 106.683594 C 293.003906 105.15625 290.277344 104.394531 287.871094 103.726562 C 286.054688 103.222656 284.484375 102.785156 283.367188 102.101562 C 281.269531 100.820312 281.046875 98.792969 282.707031 96.082031 "/><path style=" stroke:none;fill-rule:nonzero;fill:#f3ca2a;fill-opacity:1;" d="M 297.523438 102.9375 C 308.125 109.417969 311.914062 122.527344 303.929688 135.589844 C 296.5625 147.640625 284.34375 153.828125 273.988281 149.515625 C 273.117188 149.152344 267.308594 145.582031 266.511719 144.875 C 258.210938 137.546875 258.253906 124.035156 265.539062 112.121094 C 273.523438 99.0625 286.921875 96.457031 297.523438 102.9375 "/><path style=" stroke:none;fill-rule:nonzero;fill:#050606;fill-opacity:1;" d="M 266.414062 112.65625 C 259.226562 124.421875 259.542969 137.351562 267.191406 144.105469 C 268.410156 145.175781 273.519531 148.210938 274.382812 148.566406 C 283.964844 152.554688 295.753906 147 303.050781 135.054688 C 310.269531 123.253906 307.773438 110.40625 296.988281 103.8125 C 286.199219 97.21875 273.628906 100.855469 266.414062 112.65625 Z M 265.804688 145.625 C 261.582031 141.882812 259.28125 136.5625 259.15625 130.238281 C 259.035156 124.21875 260.988281 117.59375 264.660156 111.585938 C 268.617188 105.117188 274.019531 100.835938 280.292969 99.203125 C 286.21875 97.664062 292.527344 98.679688 298.058594 102.058594 C 303.585938 105.441406 307.367188 110.59375 308.699219 116.570312 C 310.105469 122.894531 308.761719 129.65625 304.808594 136.128906 C 297.058594 148.800781 284.4375 154.707031 273.976562 150.617188 C 270.679688 151.507812 266.945312 157.101562 265.8125 155.734375 C 264.285156 153.878906 267.183594 148.769531 265.804688 145.625 "/><path style=" stroke:none;fill-rule:nonzero;fill:#050606;fill-opacity:1;" d="M 260.414062 129.761719 C 282.074219 132.425781 291.15625 147.707031 291.246094 147.859375 L 299.324219 142.554688 C 298.871094 141.773438 287.945312 123.390625 262.074219 120.210938 L 260.414062 129.761719 "/><path style=" stroke:none;fill-rule:nonzero;fill:#050606;fill-opacity:1;" d="M 265.011719 111.667969 C 286.738281 114.226562 304.417969 134.488281 304.507812 134.644531 L 307.460938 124.996094 C 307.011719 124.210938 300.019531 106.46875 274.070312 103.414062 L 265.011719 111.667969 "/><path style=" stroke:none;fill-rule:nonzero;fill:#050606;fill-opacity:1;" d="M 274.523438 148.710938 L 267.417969 144.375 C 271.902344 147.550781 272.265625 147.589844 274.523438 148.710938 "/><path style=" stroke:none;fill-rule:nonzero;fill:#050606;fill-opacity:1;" d="M 295.972656 89.761719 L 297.828125 90.621094 C 297.882812 90.476562 299.105469 86.964844 299.734375 82.910156 C 300.625 77.136719 299.871094 73.410156 297.429688 71.503906 C 295.085938 69.679688 291.636719 69.835938 286.890625 71.988281 L 288.105469 73.523438 C 292.011719 71.753906 294.871094 71.4375 296.382812 72.613281 C 299.59375 75.113281 297.835938 84.460938 295.972656 89.761719 "/><path style=" stroke:none;fill-rule:nonzero;fill:#050606;fill-opacity:1;" d="M 287.902344 70.285156 C 286.089844 71.746094 285.777344 73.984375 287.203125 75.285156 C 288.625 76.578125 291.25 76.441406 293.058594 74.980469 C 294.871094 73.515625 295.183594 71.277344 293.757812 69.984375 C 292.335938 68.6875 289.710938 68.820312 287.902344 70.285156 "/><path style=" stroke:none;fill-rule:nonzero;fill:#050606;fill-opacity:1;" d="M 309.953125 98.304688 L 308.339844 97.046875 C 308.449219 96.933594 311.015625 94.246094 314.335938 91.839844 C 319.066406 88.410156 322.730469 87.382812 325.535156 88.6875 C 328.230469 89.941406 329.664062 93.082031 329.914062 98.289062 L 327.992188 97.90625 C 327.785156 93.621094 326.765625 90.933594 325.027344 90.125 C 321.339844 88.40625 313.824219 94.234375 309.953125 98.304688 "/><path style=" stroke:none;fill-rule:nonzero;fill:#050606;fill-opacity:1;" d="M 330.96875 96.613281 C 330.492188 98.890625 328.640625 100.191406 326.835938 99.515625 C 325.035156 98.835938 323.960938 96.441406 324.4375 94.160156 C 324.914062 91.882812 326.761719 90.582031 328.566406 91.257812 C 330.371094 91.9375 331.445312 94.332031 330.96875 96.613281 "/><path style=" stroke:none;fill-rule:nonzero;fill:#ffffff;fill-opacity:1;" d="M 293.507812 122.71875 C 293.507812 122.71875 316.023438 121.511719 321.195312 134.402344 C 326.367188 147.296875 318.410156 155.167969 308.578125 152.40625 C 298.742188 149.648438 293.507812 122.71875 293.507812 122.71875 "/><path style=" stroke:none;fill-rule:nonzero;fill:#050606;fill-opacity:1;" d="M 294.652344 123.636719 C 295.699219 128.386719 300.078125 146.394531 307.242188 150.773438 C 307.777344 151.101562 308.320312 151.34375 308.863281 151.496094 C 313.164062 152.703125 317.171875 151.761719 319.585938 148.976562 C 322.382812 145.75 322.660156 140.582031 320.34375 134.804688 C 319.257812 132.09375 317.238281 129.820312 314.347656 128.054688 C 307.617188 123.941406 297.945312 123.617188 294.652344 123.636719 Z M 292.605469 122.953125 L 292.390625 121.835938 L 293.507812 121.773438 C 294.046875 121.746094 306.707031 121.136719 315.347656 126.417969 C 318.5625 128.382812 320.8125 130.933594 322.046875 134.003906 C 324.640625 140.476562 324.234375 146.375 320.925781 150.191406 C 318.011719 153.550781 313.285156 154.722656 308.289062 153.320312 C 307.601562 153.125 306.910156 152.820312 306.242188 152.410156 C 297.367188 146.988281 292.796875 123.929688 292.605469 122.953125 "/><path style=" stroke:none;fill-rule:nonzero;fill:#ffffff;fill-opacity:1;" d="M 281.746094 115.527344 C 281.746094 115.527344 272.550781 94.9375 258.722656 96.214844 C 244.890625 97.492188 241.515625 108.160156 248.453125 115.652344 C 255.390625 123.148438 281.746094 115.527344 281.746094 115.527344 "/><path style=" stroke:none;fill-rule:nonzero;fill:#050606;fill-opacity:1;" d="M 267.496094 99.414062 C 264.605469 97.648438 261.664062 96.886719 258.753906 97.152344 C 252.554688 97.726562 248.082031 100.328125 246.484375 104.292969 C 245.109375 107.707031 246.097656 111.703125 249.136719 114.984375 C 249.511719 115.394531 249.980469 115.769531 250.515625 116.097656 C 257.671875 120.472656 275.703125 116.164062 280.40625 114.929688 C 278.925781 111.988281 274.230469 103.53125 267.496094 99.414062 Z M 247.773438 116.324219 C 244.246094 112.515625 243.132812 107.777344 244.792969 103.652344 C 246.679688 98.96875 251.746094 95.914062 258.691406 95.273438 C 261.984375 94.96875 265.28125 95.808594 268.496094 97.777344 C 277.136719 103.058594 282.367188 114.609375 282.585938 115.097656 L 283.039062 116.121094 L 281.949219 116.4375 C 280.992188 116.710938 258.386719 123.160156 249.515625 117.734375 C 248.84375 117.324219 248.257812 116.851562 247.773438 116.324219 "/><path style=" stroke:none;fill-rule:nonzero;fill:#ffffff;fill-opacity:1;" d="M 281.730469 115.070312 C 281.730469 115.070312 287.257812 85.441406 272.273438 76.277344 C 257.289062 67.113281 246.152344 76.246094 247.792969 89.777344 C 249.433594 103.308594 281.730469 115.070312 281.730469 115.070312 "/><path style=" stroke:none;fill-rule:nonzero;fill:#050606;fill-opacity:1;" d="M 271.765625 77.089844 C 264.960938 72.933594 258.433594 72.378906 253.855469 75.574219 C 249.898438 78.339844 247.972656 83.585938 248.703125 89.609375 C 249.277344 94.3125 254.179688 99.609375 262.890625 104.933594 C 270.199219 109.398438 278.1875 112.671875 281.015625 113.773438 C 281.824219 108.257812 284.417969 84.828125 271.765625 77.089844 Z M 246.882812 89.941406 C 246.0625 83.175781 248.304688 77.226562 252.882812 74.03125 C 258.089844 70.394531 265.335938 70.910156 272.773438 75.457031 C 279.15625 79.359375 282.875 87.5 283.535156 99.003906 C 284.027344 107.574219 282.691406 114.890625 282.632812 115.199219 L 282.421875 116.339844 L 281.382812 115.964844 C 281.277344 115.925781 271.0625 112.175781 261.890625 106.570312 C 252.582031 100.878906 247.53125 95.285156 246.882812 89.941406 "/><path style=" stroke:none;fill-rule:nonzero;fill:#ffffff;fill-opacity:1;" d="M 293.921875 122.523438 C 293.921875 122.523438 317.773438 104.097656 332.757812 113.253906 C 347.746094 122.40625 344.699219 136.488281 331.90625 141.195312 C 319.117188 145.902344 293.921875 122.523438 293.921875 122.523438 "/><g clip-rule="nonzero" clip-path="url(#cde8ccc8d2)"><path style=" stroke:none;fill-rule:nonzero;fill:#050606;fill-opacity:1;" d="M 308.078125 115.304688 C 302.222656 117.886719 297.378906 121.15625 295.402344 122.566406 C 297.667969 124.582031 304.222656 130.199219 311.53125 134.667969 C 320.246094 139.992188 327.199219 141.945312 331.640625 140.308594 C 337.335938 138.210938 341.128906 134.105469 341.78125 129.324219 C 342.539062 123.792969 339.074219 118.238281 332.261719 114.070312 C 324.847656 109.542969 315.019531 112.242188 308.078125 115.304688 Z M 293.289062 123.238281 L 292.476562 122.488281 L 293.394531 121.78125 C 293.644531 121.589844 299.542969 117.058594 307.398438 113.589844 C 317.933594 108.933594 326.878906 108.535156 333.265625 112.4375 C 340.695312 116.980469 344.464844 123.195312 343.601562 129.488281 C 342.84375 135.019531 338.570312 139.726562 332.175781 142.082031 C 327.125 143.941406 319.84375 141.996094 310.53125 136.304688 C 301.363281 130.699219 293.367188 123.316406 293.289062 123.238281 "/></g></g></svg>