<svg xmlns="http://www.w3.org/2000/svg" xmlns:xlink="http://www.w3.org/1999/xlink" width="500" zoomAndPan="magnify" viewBox="0 0 375 374.999991" height="500" preserveAspectRatio="xMidYMid meet" version="1.2"><defs><clipPath id="a83826aa17"><path d="M 31.144531 11.804688 L 331.144531 11.804688 L 331.144531 363.554688 L 31.144531 363.554688 Z M 31.144531 11.804688 "/></clipPath><clipPath id="86a48e9e4f"><path d="M 212 120 L 354.257812 120 L 354.257812 247 L 212 247 Z M 212 120 "/></clipPath><clipPath id="f52ec631e4"><path d="M 95 271 L 255 271 L 255 321.75 L 95 321.75 Z M 95 271 "/></clipPath><clipPath id="9dbd2f316a"><path d="M 53 37.5 L 113 37.5 L 113 230 L 53 230 Z M 53 37.5 "/></clipPath><clipPath id="af4d3aea82"><path d="M 20.507812 40 L 146 40 L 146 230 L 20.507812 230 Z M 20.507812 40 "/></clipPath><clipPath id="13b089a098"><path d="M 95 121 L 245 121 L 245 321.75 L 95 321.75 Z M 95 121 "/></clipPath></defs><g id="390069a172"><g clip-rule="nonzero" clip-path="url(#a83826aa17)"><path style=" stroke:none;fill-rule:nonzero;fill:none
;fill-opacity:1;" d="M 31.144531 11.804688 L 331.144531 11.804688 L 331.144531 363.554688 L 31.144531 363.554688 Z M 31.144531 11.804688 "/></g><path style=" stroke:none;fill-rule:nonzero;fill:#ffde59;fill-opacity:1;" d="M 270.820312 171 C 256.636719 171 245.789062 160.152344 245.789062 145.96875 C 245.789062 131.785156 256.636719 120.9375 270.820312 120.9375 C 294.183594 120.9375 295.851562 112.59375 295.851562 106.753906 C 295.851562 102.582031 292.511719 95.90625 279.164062 95.90625 C 264.980469 95.90625 254.96875 105.082031 254.132812 105.917969 C 244.121094 115.929688 228.265625 115.097656 219.089844 105.082031 C 209.910156 95.070312 209.910156 79.21875 219.921875 70.039062 C 222.425781 66.703125 245.789062 45.84375 279.164062 45.84375 C 320.882812 45.84375 345.914062 75.882812 345.914062 104.25 C 345.914062 145.132812 316.710938 171 270.820312 171 Z M 270.820312 171 "/><g clip-rule="nonzero" clip-path="url(#86a48e9e4f)"><path style=" stroke:none;fill-rule:nonzero;fill:#ffde59;fill-opacity:1;" d="M 270.820312 120.9375 C 256.636719 120.9375 245.789062 131.785156 245.789062 145.96875 C 245.789062 160.152344 256.636719 171 270.820312 171 C 301.691406 171 304.195312 180.175781 304.195312 183.515625 C 304.195312 186.851562 304.195312 196.03125 279.164062 196.03125 C 260.808594 196.03125 248.292969 191.023438 247.457031 190.191406 C 234.941406 184.347656 219.921875 190.191406 214.917969 202.707031 C 209.078125 215.222656 214.917969 230.238281 227.433594 236.078125 C 229.9375 237.75 249.960938 246.09375 279.164062 246.09375 C 334.230469 246.09375 354.257812 212.71875 354.257812 183.515625 C 354.257812 164.324219 345.914062 120.9375 270.820312 120.9375 Z M 270.820312 120.9375 "/></g><g clip-rule="nonzero" clip-path="url(#f52ec631e4)"><path style=" stroke:none;fill-rule:nonzero;fill:#ff3131;fill-opacity:1;" d="M 229.101562 321.1875 L 120.632812 321.1875 C 106.449219 321.1875 95.601562 310.339844 95.601562 296.15625 C 95.601562 281.96875 106.449219 271.125 120.632812 271.125 L 229.101562 271.125 C 243.285156 271.125 254.132812 281.96875 254.132812 296.15625 C 254.132812 310.339844 243.285156 321.1875 229.101562 321.1875 Z M 229.101562 321.1875 "/></g><g clip-rule="nonzero" clip-path="url(#9dbd2f316a)"><path style=" stroke:none;fill-rule:nonzero;fill:#00bf63;fill-opacity:1;" d="M 83.085938 229.40625 C 67.234375 229.40625 53.882812 216.054688 53.882812 200.203125 L 53.882812 66.703125 C 53.882812 50.851562 67.234375 37.5 83.085938 37.5 C 98.941406 37.5 112.289062 50.851562 112.289062 66.703125 L 112.289062 200.203125 C 112.289062 216.054688 98.941406 229.40625 83.085938 229.40625 Z M 83.085938 229.40625 "/></g><g clip-rule="nonzero" clip-path="url(#af4d3aea82)"><path style=" stroke:none;fill-rule:nonzero;fill:#00bf63;fill-opacity:1;" d="M 70.570312 40.003906 L 32.191406 60.863281 C 24.679688 64.199219 20.507812 72.542969 20.507812 80.886719 C 20.507812 94.238281 29.6875 104.25 40.535156 104.25 L 69.738281 104.25 Z M 120.632812 229.40625 L 45.539062 229.40625 C 31.355469 229.40625 20.507812 218.558594 20.507812 204.375 C 20.507812 190.191406 31.355469 179.34375 45.539062 179.34375 L 120.632812 179.34375 C 134.816406 179.34375 145.664062 190.191406 145.664062 204.375 C 145.664062 218.558594 134.816406 229.40625 120.632812 229.40625 Z M 120.632812 229.40625 "/></g><g clip-rule="nonzero" clip-path="url(#13b089a098)"><path style=" stroke:none;fill-rule:nonzero;fill:#ff3131;fill-opacity:1;" d="M 120.632812 321.1875 C 113.125 321.1875 106.449219 317.847656 101.441406 312.007812 C 92.265625 301.160156 93.933594 285.308594 104.78125 276.964844 C 124.804688 260.277344 142.328125 246.925781 155.675781 236.914062 C 191.554688 209.378906 195.726562 205.207031 195.726562 191.859375 C 195.726562 188.519531 194.890625 171 170.695312 171 C 151.503906 171 135.652344 182.679688 135.652344 182.679688 C 124.804688 191.023438 108.953125 189.355469 100.609375 178.507812 C 92.265625 167.660156 93.933594 151.808594 104.78125 143.464844 C 107.285156 140.960938 133.984375 121.769531 169.859375 121.769531 C 218.253906 121.769531 244.953125 158.484375 244.953125 192.691406 C 244.953125 231.90625 222.425781 249.429688 184.878906 277.796875 C 171.53125 287.8125 154.84375 300.328125 135.652344 316.179688 C 132.316406 319.515625 126.472656 321.1875 120.632812 321.1875 Z M 120.632812 321.1875 "/></g></g></svg>